<svg xmlns="http://www.w3.org/2000/svg" version="1.1" xmlns:xlink="http://www.w3.org/1999/xlink" xmlns:svgjs="http://svgjs.com/svgjs" width="1440" height="560" preserveAspectRatio="none" viewBox="0 0 1440 560"><g mask="url(&quot;#SvgjsMask1011&quot;)" fill="none"><rect width="1440" height="560" x="0" y="0" fill="rgba(69, 64, 202, 1)"></rect><path d="M1512 560L0 560 L0 304.24Q51.95 236.19, 120 288.14Q188.69 284.83, 192 353.52Q213.81 303.32, 264 325.13Q292.69 281.81, 336 310.5Q411.63 266.13, 456 341.75Q465.4 279.15, 528 288.56Q569.34 257.9, 600 299.24Q697.22 276.46, 720 373.68Q754.33 288.01, 840 322.34Q894.33 256.66, 960 310.99Q1067.45 298.44, 1080 405.89Q1102.47 308.36, 1200 330.83Q1243.91 254.75, 1320 298.66Q1362.32 268.98, 1392 311.3Q1489.36 288.66, 1512 386.02z" fill="rgba(80, 75, 229, 1)"></path><path d="M1536 560L0 560 L0 402.28Q76 358.27, 120 434.27Q146.69 388.96, 192 415.65Q215.38 367.02, 264 390.4Q306.81 361.21, 336 404.02Q427.15 375.17, 456 466.32Q521.75 412.07, 576 477.82Q576.16 405.98, 648 406.14Q672.99 359.13, 720 384.12Q775.79 367.91, 792 423.71Q860.35 420.06, 864 488.41Q879.66 432.07, 936 447.72Q948.72 388.44, 1008 401.16Q1038.55 359.71, 1080 390.25Q1178.56 368.81, 1200 467.36Q1227.94 423.31, 1272 451.25Q1324.16 431.41, 1344 483.58Q1371.33 438.9, 1416 466.23Q1449.9 380.13, 1536 414.03z" fill="rgba(83, 93, 227, 1)"></path><path d="M1512 560L0 560 L0 487.18Q30.55 445.73, 72 476.28Q133.2 465.48, 144 526.68Q164.31 474.99, 216 495.3Q300.14 459.44, 336 543.57Q355.5 491.08, 408 510.58Q462.14 444.72, 528 498.86Q611.55 462.41, 648 545.97Q672.52 450.49, 768 475.01Q815.18 450.19, 840 497.37Q899.25 484.63, 912 543.88Q978.01 489.89, 1032 555.91Q1082.88 534.79, 1104 585.68Q1128.45 490.13, 1224 514.59Q1268.51 487.11, 1296 531.62Q1348.39 512.01, 1368 564.41Q1411.93 536.35, 1440 580.28Q1450.1 518.38, 1512 528.48z" fill="rgba(255, 255, 255, 1)"></path></g><defs><mask id="SvgjsMask1011"><rect width="1440" height="560" fill="#ffffff"></rect></mask></defs></svg>