 <!DOCTYPE svg PUBLIC "-//W3C//DTD SVG 1.1//EN" "http://www.w3.org/Graphics/SVG/1.1/DTD/svg11.dtd">
<svg id="ba370828-c702-49c1-9941-d5a5e159674e" data-name="Layer 1" xmlns="http://www.w3.org/2000/svg" width="865.76" height="682.89" viewBox="0 0 865.76 682.89">
<defs>
<style xmlns="http://www.w3.org/1999/xhtml">*, ::after, ::before { box-sizing: border-box; }
img, svg { vertical-align: middle; }
</style>
<style xmlns="http://www.w3.org/1999/xhtml">*, body, html { -webkit-font-smoothing: antialiased; }
img, svg { max-width: 100%; }
</style>
</defs>
<path d="M411.21,475c-1.86,4.88-19.4,3.49-28,2.49l-2.19-.27c-1.61-.21-2.58-.36-2.58-.36v-9l1.41-1.19c.39-.34.86-.72,1.39-1.16,6.55-5.4,22.56-17.84,26-13.43a24.77,24.77,0,0,1,4,8.48,32.39,32.39,0,0,1,1,5.67A20.47,20.47,0,0,1,411.21,475Z" fill="#0071f2" data-primary="true"/>
<g opacity="0.2">
<path d="M384.94,472.41a4.5,4.5,0,0,1-2,4c-.81-.1-1.36.86-2,.78a9.84,9.84,0,0,1-7.13,2.87c-5,0-9.12-3.42-9.12-7.63s4.08-7.63,9.12-7.63a10.15,10.15,0,0,1,6,1.86c.39-.34.29,0,.82-.44C382.92,467.9,384.94,469.65,384.94,472.41Z"/>
</g>
<path d="M422.65,497.57v58.91a8.84,8.84,0,0,1-.34,2.48l-34.08-2.32c-19.55-.27-41.78.11-63.13.78,0-.31,0-.62,0-.94V497.57a9.63,9.63,0,0,1,9.65-9.64H413A9.63,9.63,0,0,1,422.65,497.57Z" fill="#e6e7e8"/>
<rect x="325.06" y="504.02" width="97.58" height="5.96" fill="#ddd"/>
<g opacity="0.2">
<path d="M405,453.32c.45.67-3.47,4.09-8.76,7.63s-9.95,5.88-10.4,5.21,3.48-4.09,8.77-7.64S404.58,452.65,405,453.32Z"/>
</g>
<path d="M336.5,475c1.86,4.88,19.4,3.49,28,2.49l2.18-.27c1.62-.21,2.59-.36,2.59-.36v-9l-1.41-1.19c-.39-.34-.86-.72-1.39-1.16-6.55-5.4-22.56-17.84-26-13.43a24.59,24.59,0,0,0-4,8.48,31.49,31.49,0,0,0-1,5.67A20.32,20.32,0,0,0,336.5,475Z" fill="#0071f2" data-primary="true"/>
<g opacity="0.2">
<path d="M362.77,472.41a4.5,4.5,0,0,0,2,4c.81-.1,1.36.86,2,.78a9.86,9.86,0,0,0,7.13,2.87c5,0,9.13-3.42,9.13-7.63s-4.09-7.63-9.13-7.63a10.14,10.14,0,0,0-6,1.86c-.39-.34-.29,0-.82-.44C364.78,467.9,362.77,469.65,362.77,472.41Z"/>
</g>
<path d="M383,472.41a6.85,6.85,0,0,1-2,4.76,9.84,9.84,0,0,1-7.13,2.87c-5,0-9.12-3.42-9.12-7.63s4.08-7.63,9.12-7.63a10.15,10.15,0,0,1,6,1.86A7.14,7.14,0,0,1,383,472.41Z" fill="#0071f2" data-primary="true"/>
<rect x="319.61" y="476.39" width="108.48" height="27.63" rx="3.2" fill="#e6e7e8"/>
<path d="M380.69,476.3v80.28c-4.46,0-9,0-13.68,0V476.3Z" fill="#0071f2" data-primary="true"/>
<g opacity="0.2">
<rect x="367.03" y="504.02" width="13.64" height="5.96"/>
</g>
<path d="M543.21,637.36c-17.24,0-31.19-.52-38.72-1.86l-.28-.11c-.25-.17-2.43-1.65-2-3.37.3-1.32,1.85-2.12,4.89-2.52,0,0,.14,0,.14-.17s-.08-.14-.13-.15c-13-1.61-40.37-4.51-78.46-5.82-1.14,0-115.06-2.32-175,6.39-8.34,0-201.7-.1-218.15-26.36a5.65,5.65,0,0,1,1.71-7.54c4.88-3.39,19.44-9.54,62.17-12.6,15.12.13,54.93-1.14,58.41-8.44.43-.9.21-1.9-.68-3-1.74-.51-12.79-3.78-23.65-7.42-24.39-8.17-24.08-10.16-23.91-11.22.2-1.29,2-1.73,6.49-1.61.75.16,60.79,13.49,118.91,9.4.43,0,43.45-2.84,90.14-4.27,15.05-.47,29.16-.75,41.93-.84,4.64,0,9.23,0,13.69,0,2.56,0,5.07,0,7.54.06l159.55,10.85,182.37,24.1a162.45,162.45,0,0,0,27.29,1.25c25.5-1,56.95-.4,62,7.66a5,5,0,0,1,0,5.24c-.36,2.37-6.55,23.12-110.46,25.67C707.64,630.72,604.64,637.36,543.21,637.36ZM504.93,634c34.51,6,202.25-4.81,203.94-4.92,105.75-2.58,109-24.19,109-24.41l.09-.31a3.58,3.58,0,0,0,.14-3.82c-3.56-5.72-25.65-8.24-60.6-6.93A165.62,165.62,0,0,1,730,592.35l-182.31-24.1L388.18,557.41c-2.42,0-4.93-.06-7.49-.06-4.46,0-9,0-13.67,0-12.76.09-26.85.37-41.89.84-46.66,1.43-89.66,4.24-90.09,4.27-58.36,4.09-118.6-9.28-119.2-9.41-3.27-.09-4.36.22-4.7.37,1.74,2.58,24.79,10.55,46.62,16.94l.23.06.15.19c1.41,1.7,1.76,3.34,1,4.86-4.53,9.52-54.1,9.38-59.75,9.32-42.3,3-56.59,9-61.34,12.33a4.1,4.1,0,0,0-1.29,5.45c16,25.55,214.73,25.62,216.74,25.64,59.93-8.72,174-6.42,175.12-6.4,38.16,1.32,65.63,4.22,78.6,5.84a1.65,1.65,0,0,1,1.49,1.65,1.7,1.7,0,0,1-1.47,1.73c-3.3.44-3.58,1.24-3.6,1.33C503.57,632.79,504.31,633.57,504.93,634Z" fill="#2f2e41" data-secondary="true"/>
<path d="M765.27,487a81.23,81.23,0,1,1-25.16-48.08l16.42-16.69c-17.7-19.35-42.4-31.36-69.72-31.36-53.83,0-97.47,46.62-97.47,104.12S633,599.13,686.81,599.13,784.28,552.51,784.28,495a111.3,111.3,0,0,0-2.73-24.56Z" fill="#0071f2" data-primary="true"/>
<polygon points="650.31 466.8 694.82 503.38 780.75 408.63 801.91 425.38 692.17 552.3 626.36 490.7 650.31 466.8" fill="#0071f2" data-primary="true"/>
<polygon points="650.31 466.8 672.34 464.6 703.64 493.65 694.82 503.38 650.31 466.8" fill="#2f2e41" data-secondary="true"/>
<polygon points="780.75 408.63 796.18 403.34 821.74 426.7 706.72 552.3 692.17 552.3 801.91 425.38 780.75 408.63" fill="#2f2e41" data-secondary="true"/>
<path d="M733.23,394.81a56.11,56.11,0,0,1,13.16,6.59c4,2.78,7.94,6,10.57,10.25a85.26,85.26,0,0,0-11.43-9c-2-1.36-4-2.65-6.1-4Z" fill="#2f2e41" data-secondary="true"/>
<path d="M752.9,398.63a13.48,13.48,0,0,1,4.06,2.49,13,13,0,0,1,3,3.66,13,13,0,0,1-4-2.49A13.29,13.29,0,0,1,752.9,398.63Z" fill="#2f2e41" data-secondary="true"/>
<path d="M590.81,511.49s-18.94,17-48.91,13.48l-.31-13.48s-77-10.61-61.91-61.91c0,0-13.62-10.62-1.95-25.65,0,0-8.76-6.19-4.73-23,0,0-79.72-2.66-77.65-20.35,0,0-2.34-15.3,86.1-7.2,0,0,46,2.21,48.63-2.38,0,0-18.57-24-10.61-32.86,0,0,22.12-17.7,69.87,46,0,0,14.16,21.22,16.82,46.88,0,0,10.61,1.77,16.79,9.73,0,0-.41,19.45-23.32,45.45,0,0-5.29,6.62,4.84,4.85C604.47,491,612.85,494.48,590.81,511.49Z" fill="#f9b499"/>
<path d="M642.16,611.35c-6,3.31-41.65-4.63-41.65-4.63-31.06.66-4,4.63-4,4.63,37,5.95-14.55,10.58-14.55,10.58-46.27,8.59-52.23,0-52.23,0-15.2-13.88,17.85-15.87,17.85-15.87C535.73,581,541.9,525,541.9,525c30,3.53,48.91-13.48,48.91-13.48,22-17,13.66-20.45,13.66-20.45-10.13,1.77-4.84-4.85-4.84-4.85,22.91-26,23.32-45.45,23.32-45.45C661.93,475.69,642.16,611.35,642.16,611.35Z" fill="#2f2e41" data-secondary="true"/>
<path d="M473,400.93s18.28,3.33,24.21,7.7" fill="none" stroke="#f7a48b" stroke-miterlimit="10"/>
<path d="M477.73,423.93s12.19,14.9,31.4,16.81" fill="none" stroke="#f7a48b" stroke-miterlimit="10"/>
<path d="M479.68,449.58S483.87,459,504.62,473" fill="none" stroke="#f7a48b" stroke-miterlimit="10"/>
<path d="M530.08,371s4.93,8.65,19,10.87c0,0,9.64,1.74,16.31,9" fill="none" stroke="#f7a48b" stroke-miterlimit="10"/>
<path d="M355.06,416.6s-20,10.32-35.26,15.73c0,0-31.14,16-32.31,40.71l6.68,8.28a2.1,2.1,0,0,1-1.11,3.33c-3.64,1-8.5,3.3-4.32,8.19a4.33,4.33,0,0,1-.82,6.42c-3.47,2.24-10.8,3.93-26.28.77a89.13,89.13,0,0,1-31-13.37,4.91,4.91,0,0,1-1.42-6.5l2.45-4.21h0s-33.2-19.9-26.89-76.06a58,58,0,0,1,18.09-36.13,89.18,89.18,0,0,1,12.91-10s22.32-25.85,37.61-23.51c0,0-14.7-93.42,18.22-95.18,0,0,15.27-4.12,4.1,77.55,0,0-7,59.94,34.09,82.26C329.8,394.85,362.11,399.56,355.06,416.6Z" fill="#f9b499"/>
<path d="M209.93,397.21s11.78,5.12,22.91,18.71a12.29,12.29,0,0,0,9.68,4.68c5.59-.14,11.92-4.2,9.13-23.39,0,0,7,23.5,19.39,14.1,0,0,19.39-12.34-15.87-54.64,0,0,15.34-4.78,21.19,16.71,0,0,2.22,16.67,10.65,18a6.89,6.89,0,0,0,6.71-3.15c2.24-3.42,4.75-10.93,2.58-26.84,0,0-4.11-28.79-22.91-31.14" fill="none" stroke="#f7a48b" stroke-miterlimit="10"/>
<path d="M234.29,381s12.42,5.88,17.36,16.26" fill="none" stroke="#f7a48b" stroke-miterlimit="10"/>
<path d="M284.77,602.86c2.29,22.94-56.87,6.31-56.87,6.31,14.24-29.83,3.77-68.82,3.77-68.82-16.62-53.91-1.55-62.54-.87-62.94l-1.6,2.75a4.91,4.91,0,0,0,1.42,6.5,89.13,89.13,0,0,0,31,13.37c15.48,3.16,22.81,1.47,26.28-.77a4.33,4.33,0,0,0,.82-6.42c-4.18-4.89.68-7.2,4.32-8.19a2.1,2.1,0,0,0,1.11-3.33c13.4,8.65,25.58,55,25.58,55,4.59,29.24,7.46,39.56,7.46,39.56,25.23-4.58,28.85,4,28.85,4C363.13,609.74,284.77,602.86,284.77,602.86Z" fill="#2f2e41" data-secondary="true"/>
<path d="M367.75,232s-28.58,60.7-9.63,57.61c0,0,4,.44,28.65-17.18,0,0,30.85-20.92,52-11.56,0,0,124.28,46.37,219.47,64.88,0,0,50.68,13.66,59-10.58,0,0,39.92-86.37,8.72-108.85,0,0-7.5-6.49-34.61-11.78,0,0-176.83-49.59-221.78-70.9,0,0-126.64-42.94-140.45,0,0,0-37.21,73.34-7.67,93.43C321.5,217.1,329.21,225,367.75,232Z" fill="#0071f2" data-primary="true"/>
<path d="M388.24,381a12.83,12.83,0,0,1,1.56-3.7l1.1-1.7,1.32-1.53a31.2,31.2,0,0,1,6.18-5.2l1.68-1.13c.59-.33,1.2-.62,1.79-.94l3.63-1.82,3.79-1.41,1.9-.71a13,13,0,0,1,1.92-.61c2.61-.67,5.21-1.43,7.84-2l8-1.37c1.32-.27,2.67-.32,4-.46l4-.36,4-.36c1.34-.14,2.69-.1,4-.15,5.37-.12,10.76-.37,16.13-.06l8.06.32c2.69.06,5.35.44,8,.64l8,.73c1.33.13,2.67.23,4,.38l4,.54,15.95,2.25-.56.7a46.31,46.31,0,0,1-2-8.07,34.61,34.61,0,0,1-.36-8.26,24.57,24.57,0,0,1,2-8,18,18,0,0,1,5.22-6.3,18.48,18.48,0,0,0-4.9,6.44,23.88,23.88,0,0,0-1.69,7.91,37.23,37.23,0,0,0,.57,8.09,44.49,44.49,0,0,0,2.08,7.83l.3.79-.86-.1c-10.64-1.25-21.24-2.79-31.93-3.49-2.67-.18-5.33-.54-8-.58l-8-.27c-5.34-.35-10.68-.13-16-.06-10.65.47-21.38,1.35-31.66,4.26a12.83,12.83,0,0,0-1.92.57l-1.88.66-3.78,1.31-3.6,1.72c-.6.29-1.21.55-1.8.86l-1.69,1.06a23.31,23.31,0,0,0-3.29,2.25,22.75,22.75,0,0,0-3,2.66l-1.36,1.47L390,377.35A12.57,12.57,0,0,0,388.24,381Z" fill="#2f2e41" data-secondary="true"/>
<path d="M212.5,343.93c-.47,0-47-3.34-72.36-34.32-13.54-16.5-18.79-37.82-15.61-63.39-.7-.68-1.39-1.38-2.06-2.13-10.45-11.56-14.48-28.25-12-49.61,0-.57-3.08-70.19,69-85,.24-.09,33.77-10.52,62.13,44.27.08.17,7.73,15.4,20,18.25,5.85,1.37,11.89-.31,17.93-4.95l.14-.09a33.68,33.68,0,0,0,15.75-18.59c3.55-10.65,1.69-23.26-5.54-37.49-24.71,23.24-40,20.27-40.74,20.11l-.2-.07c-8.91-4.77-13.75-10.4-14.38-16.74-1-9.59,8.06-17.13,8.45-17.44,10.54-6.39,20.17-8.2,28.73-5.45,11.39,3.66,17.18,14.14,18.58,17a162.46,162.46,0,0,0,11.3-12.12,138.56,138.56,0,0,1,34.84-34.42c20.19-13.58,52.3-25.61,90.63-5.77,1,.65,22.55,14.69,29.88,25,.8-2.5,2-10.75-3.24-34.58l1.5-.33c7,31.64,2.85,36.55,2.35,37l-.68.63-.49-.79c-6.29-10.06-29.86-25.42-30.09-25.57-37.58-19.44-69.12-7.64-89,5.69a136.64,136.64,0,0,0-34.5,34.09,169.71,169.71,0,0,1-11.82,12.66c7.6,14.76,9.57,27.94,5.83,39.11a34.75,34.75,0,0,1-16.46,19.44c-6.41,4.91-12.86,6.65-19.17,5.18-13-3-20.69-18.4-21-19-27.72-53.53-60-43.59-60.36-43.48C109,125.54,112,193.84,112,194.53c-2.44,21,1.45,37.3,11.58,48.52.42.46.84.91,1.27,1.35,1.55-5,11.69-34.94,31.64-41.27,9.22-2.92,19.11-.27,29.42,7.89l.16.17c.39.58,9.39,14.31,4.34,28.12-3.57,9.74-13.2,16.92-28.64,21.36l-.2,0c-.24,0-20.61.16-35.67-13.19-2.85,24.58,2.33,45.18,15.41,61.13,25,30.45,70.81,33.72,71.27,33.75Zm-86.35-98.3c14.14,13.18,33.75,13.53,35.32,13.53,14.87-4.3,24.13-11.15,27.5-20.37,4.58-12.48-3.3-25.39-4.1-26.64-9.84-7.76-19.23-10.3-27.89-7.55-20.48,6.5-30.69,40.41-30.79,40.75C126.17,245.45,126.16,245.54,126.15,245.63ZM249.58,129.51c1.32.21,16.25,1.94,39.59-20.07-.88-1.87-6.55-13-17.89-16.68-8.11-2.6-17.32-.84-27.36,5.24,0,0-8.68,7.28-7.8,16C236.69,119.81,241.22,125,249.58,129.51Z" fill="#2f2e41" data-secondary="true"/>
<path d="M284.52,264.92a22.59,22.59,0,0,1-2-7.8,10.22,10.22,0,0,1,9.11-10.84c4-.32,8.8,1.64,12.13,10.79l32.73,86.75a186.61,186.61,0,0,0,9.66,21.27c6.92,13.07,17.16,37,1.36,39.69,0,0-12.36,6.93-21.4-29.37Z" fill="#0071f2" data-primary="true"/>
<path d="M300.46,307.25a19.15,19.15,0,0,1,18.81-9.14l8.42,22.3s-15.55,5.2-17.59,12.43Z" fill="#2f2e41" data-secondary="true"/>
<path d="M578.51,150.66s44.47,3.91,84.14,17.79c0,0,30.89,18,28.47,4.22a6.63,6.63,0,0,1,4.64-7.51c6-1.73,16.27-1.15,30.25,12.69,0,0,8.69,9.61,15.3,26.88,0,0,2.65,11.32,10.58-7.19,0,0,12.65-13.57,13.16,8a56.5,56.5,0,0,1-2.67,18.16L737.93,302l23.87-23.33" fill="none" stroke="#2f2e41" stroke-miterlimit="10"/>
<path d="M195.94,615q-6.7-1.1-13.29-2.81a42.6,42.6,0,0,1-6.48-2.19,11,11,0,0,1-1.55-.83,3.14,3.14,0,0,1-1.35-1.43,1,1,0,0,1-.08-.63,1.91,1.91,0,0,1,.06-.33l.15-.26c.2-.38.49-.51.75-.74a9.16,9.16,0,0,1,1.66-.77l.06,0h.1q9-.29,18-.68c3-.16,6-.33,9-.57a69.58,69.58,0,0,0,8.8-1.14l-.06,1.48a127.7,127.7,0,0,1-15.07-6.27,38.79,38.79,0,0,1-3.58-2,12.08,12.08,0,0,1-3.24-2.82,3.32,3.32,0,0,1-.5-1.18,1.58,1.58,0,0,1,0-.72,1.33,1.33,0,0,1,.24-.68,3.18,3.18,0,0,1,.89-1c.33-.17.67-.38,1-.52a18.46,18.46,0,0,1,4.09-1h.08c10.17.12,20.33.27,30.49.57-10.16.31-20.32.46-30.49.58h.09a16.76,16.76,0,0,0-3.76,1c-.28.12-.51.29-.77.43s-.44.33-.48.52c-.19.32-.1.72.22,1.2a11,11,0,0,0,2.88,2.43,39,39,0,0,0,3.47,1.94,126.41,126.41,0,0,0,14.93,6.06l2.63.9-2.69.57a69.35,69.35,0,0,1-9.06,1.11c-3,.21-6,.36-9,.49q-9,.38-18,.36l.16,0a7.69,7.69,0,0,0-1.43.61c-.41.29-.64.54-.52.79a2.39,2.39,0,0,0,.94,1,10.85,10.85,0,0,0,1.42.8,49.16,49.16,0,0,0,6.28,2.36C187.14,612.9,191.53,614,195.94,615Z" fill="#2f2e41" data-secondary="true"/>
<path d="M351.07,569.57a20.15,20.15,0,0,1,7.22-.48,14.83,14.83,0,0,1,6.88,2.47l.77.53.68.64a8.17,8.17,0,0,1,1.28,1.35l1.12,1.5.86,1.66c.14.28.29.55.41.83l.3.88.58,1.77c.28,1.2.47,2.42.7,3.63l-.36-.51a36,36,0,0,0,9,1.89,68.27,68.27,0,0,0,9.38.23c6.24-.34,12.6-.92,18.91-1.22a182.8,182.8,0,0,1,19-.18,73.37,73.37,0,0,1,9.47,1,25.16,25.16,0,0,1,9,2.94,26.72,26.72,0,0,0-9.08-2.39c-3.13-.33-6.27-.53-9.42-.55-6.3-.09-12.61.26-18.91.62-3.15.2-6.3.44-9.45.69s-6.29.57-9.49.64a72.84,72.84,0,0,1-9.57-.34A35.8,35.8,0,0,1,371,585l-.3-.12-.06-.38c-.19-1.16-.33-2.34-.56-3.49l-.5-1.69-.25-.85c-.11-.27-.24-.52-.36-.79l-.76-1.58-1-1.44a7.5,7.5,0,0,0-1.16-1.3l-.61-.62-.71-.52a14.69,14.69,0,0,0-6.47-2.69A21.78,21.78,0,0,0,351.07,569.57Z" fill="#2f2e41" data-secondary="true"/>
<path d="M431.07,576.58a36.52,36.52,0,0,1,7.83,1.32,35.78,35.78,0,0,1,7.43,2.81,36.52,36.52,0,0,1-7.83-1.32A36.94,36.94,0,0,1,431.07,576.58Z" fill="#2f2e41" data-secondary="true"/>
<path d="M419.16,610.86q12.13-.36,24.28-.51c8.09-.14,16.18-.18,24.27-.21l12.13,0,12.14,0c8.09,0,16.18.07,24.27.22l-.47.3a18.1,18.1,0,0,1,3.69-4.89,22.52,22.52,0,0,1,4.89-3.56,27.1,27.1,0,0,1,5.61-2.16c1-.29,2-.41,2.93-.61s2-.21,3-.31c-1,.16-2,.3-2.94.49s-2,.41-2.88.76a26.24,26.24,0,0,0-5.4,2.36,24.2,24.2,0,0,0-4.6,3.63,17.27,17.27,0,0,0-3.35,4.68l-.14.31h-.32c-8.09.15-16.18.19-24.27.21l-12.14.06-12.13-.06c-8.09,0-16.18-.06-24.27-.2S427.25,611.1,419.16,610.86Z" fill="#2f2e41" data-secondary="true"/>
<path d="M487.46,602.14a57.52,57.52,0,0,1,18.76,0,50.32,50.32,0,0,1-9.38.77A51.26,51.26,0,0,1,487.46,602.14Z" fill="#2f2e41" data-secondary="true"/>
<path d="M629.65,623.94c3.62.29,7.24.48,10.86.59s7.25.09,10.84-.12a37.38,37.38,0,0,0,10.49-1.78,7.5,7.5,0,0,0,3.93-2.79,3.8,3.8,0,0,0,.52-2.18c-.07-.39-.13-.79-.22-1.19l-.43-1.18.35.35a24.55,24.55,0,0,1-6-3.74,4.21,4.21,0,0,1-1.13-1.65A1.73,1.73,0,0,1,659,609a2.06,2.06,0,0,1,.78-.86,8.53,8.53,0,0,1,3.51-1,42.79,42.79,0,0,1,6.88-.08c2.28.09,4.56.17,6.83.3-2.27.13-4.55.21-6.82.3a57.83,57.83,0,0,0-6.76.46,7.86,7.86,0,0,0-3,1c-.36.29-.46.46-.33.79a3.51,3.51,0,0,0,.86,1.08,23.58,23.58,0,0,0,5.63,3.4l.27.13.08.22.53,1.37c.13.48.21,1,.3,1.48a5.32,5.32,0,0,1-.68,3,8.34,8.34,0,0,1-4.72,3.45,38.49,38.49,0,0,1-10.94,1.69,95,95,0,0,1-10.94-.35C636.84,625.07,633.22,624.6,629.65,623.94Z" fill="#2f2e41" data-secondary="true"/>
<path d="M788.75,546.26a100.86,100.86,0,0,0,8.51-19.3,104.21,104.21,0,0,0,4.65-20.52l.36-2.61c.09-.87.13-1.74.2-2.62.11-1.75.29-3.49.34-5.24a99.29,99.29,0,0,0-.27-10.5c-.37-7-1.95-13.87-3.64-20.66l-.14-.56.47-.29a111.65,111.65,0,0,0,13.89-10,71.63,71.63,0,0,0,11.77-12.35c3.3-4.56,5.82-10,5.39-15.71a17.26,17.26,0,0,0-2.75-7.93,29.88,29.88,0,0,0-5.79-6.31,28,28,0,0,1,6.1,6.1,17.69,17.69,0,0,1,3.12,8.08,19.44,19.44,0,0,1-1.12,8.65,32.88,32.88,0,0,1-4.05,7.75,59.41,59.41,0,0,1-5.47,6.78,86.93,86.93,0,0,1-6.32,6,112.13,112.13,0,0,1-14,10.26l.34-.85a101,101,0,0,1,3.65,21,105.29,105.29,0,0,1,.2,10.66c-.07,1.77-.26,3.54-.39,5.31-.07.88-.12,1.77-.22,2.65l-.4,2.64a105.83,105.83,0,0,1-5.15,20.6A93.42,93.42,0,0,1,788.75,546.26Z" fill="#2f2e41" data-secondary="true"/>
<path d="M794.42,550a45.56,45.56,0,0,0,2.86-4.47c.86-1.53,1.66-3.08,2.4-4.67s1.43-3.2,2.12-4.82,1.31-3.28,2.06-4.94a26.66,26.66,0,0,1-.92,5.33,32.38,32.38,0,0,1-1.87,5.09,27.59,27.59,0,0,1-2.79,4.67A15.7,15.7,0,0,1,794.42,550Z" fill="#2f2e41" data-secondary="true"/>
<path d="M801.91,556.65a36,36,0,0,1,6.66-6.16A38.26,38.26,0,0,1,812.4,548a18.89,18.89,0,0,1,4.22-1.78c-2.38,1.91-4.72,3.71-7.14,5.48A68.15,68.15,0,0,1,801.91,556.65Z" fill="#2f2e41" data-secondary="true"/>
<rect x="733.17" y="316.63" width="1.54" height="27.14" transform="translate(-64.63 230.3) rotate(-17.09)" fill="#2f2e41" data-secondary="true"/>
<line x1="737.93" y1="310.67" x2="760" y2="315.04" fill="none" stroke="#2f2e41" stroke-miterlimit="10"/>
<path d="M501.3,340.4a8.64,8.64,0,0,1,1.19-2.66,13.61,13.61,0,0,1,1.8-2.27,12.13,12.13,0,0,1,4.84-3.13,22.47,22.47,0,0,1-1.83,2.2c-.63.69-1.27,1.35-1.91,2C504.09,337.86,502.81,339.14,501.3,340.4Z" fill="#2f2e41" data-secondary="true"/>
<path d="M501.3,325.12a13.37,13.37,0,0,1,4.71-.77,13.06,13.06,0,0,1,4.7.77,14.76,14.76,0,0,1-9.41,0Z" fill="#2f2e41" data-secondary="true"/>
<path d="M460.88,423.93a76,76,0,0,1,9-3.33" fill="none" stroke="#2f2e41" stroke-miterlimit="10"/>
<path d="M465.4,436.81s-.43-10.39,7.6-12.88" fill="none" stroke="#2f2e41" stroke-miterlimit="10"/>
<line x1="465.4" y1="453.04" x2="473" y2="449.58" fill="none" stroke="#2f2e41" stroke-miterlimit="10"/>
<path d="M469.2,464.6s-1-9,6.7-13.29" fill="none" stroke="#2f2e41" stroke-miterlimit="10"/>
<path d="M302.76,244.43a36.27,36.27,0,0,1,8.09,9.31,77,77,0,0,1,5.9,10.9c.89,1.87,1.61,3.81,2.4,5.73s1.42,3.88,2.12,5.83l1.86,5.92,1.65,6v.08a77,77,0,0,0,3.82,16.16,20.06,20.06,0,0,0,1.81,3.62,4.51,4.51,0,0,0,2.69,2.2c1,.15,2.13-.62,3-1.54a10.11,10.11,0,0,0,2.16-3.24,10.56,10.56,0,0,0,.8-3.81,13.05,13.05,0,0,0-.09-2l-.17-1a1,1,0,0,0-.23-.63A1,1,0,0,0,337,298a5.92,5.92,0,0,0-.51.76,8.33,8.33,0,0,0-.86,3.71,24.14,24.14,0,0,0,1.55,8,64,64,0,0,0,3.29,7.63l0-.06a96.11,96.11,0,0,1,6.15,12.52,125.31,125.31,0,0,1,4.63,13.12,110.69,110.69,0,0,1,3.14,13.54A113.84,113.84,0,0,1,355.89,371a127.08,127.08,0,0,0-5.49-27.06A125.36,125.36,0,0,0,345.55,331a111.91,111.91,0,0,0-6.23-12.26l0,0h0a65.7,65.7,0,0,1-3.41-7.78,25.27,25.27,0,0,1-1.68-8.45,9.73,9.73,0,0,1,1-4.4,8,8,0,0,1,.66-1,2.5,2.5,0,0,1,3.9-.09,2.5,2.5,0,0,1,.55,1.29l.2,1.09a13.65,13.65,0,0,1,.11,2.22,11.47,11.47,0,0,1-.93,4.35,11.68,11.68,0,0,1-2.5,3.7,9.09,9.09,0,0,1-1.81,1.42,4,4,0,0,1-2.48.52,5.77,5.77,0,0,1-3.69-2.86,20.75,20.75,0,0,1-1.92-3.9,77.82,77.82,0,0,1-3.8-16.51v.08l-1.52-6-1.74-5.91c-.65-1.95-1.28-3.9-2-5.83s-1.42-3.86-2.27-5.72a84.42,84.42,0,0,0-5.53-11A38.43,38.43,0,0,0,302.76,244.43Z" fill="#2f2e41" data-secondary="true"/>
<path d="M383.22,304.59l-1.06-1.12c.21-.2,21-19.49,54.24-16.69l-.13,1.54C403.68,285.57,383.42,304.4,383.22,304.59Z" fill="#2f2e41" data-secondary="true"/>
<path d="M410,300.05l-1-1.16c.3-.27,7.62-6.45,20.46-4l-.29,1.52C417.1,294.09,410.09,300,410,300.05Z" fill="#2f2e41" data-secondary="true"/>
<line x1="421.26" y1="304.03" x2="427.57" y2="304.03" fill="none" stroke="#2f2e41" stroke-miterlimit="10"/>
<path d="M388.24,262.07s31-29.56,77.16-12.14c0,0,91,37.47,108.43,40.1A16.22,16.22,0,0,0,568,278.65" fill="none" stroke="#fff" stroke-miterlimit="10"/>
<line x1="582.27" y1="284.23" x2="586.49" y2="295.65" fill="none" stroke="#fff" stroke-miterlimit="10"/>
<line x1="596.52" y1="290.03" x2="596.52" y2="299.06" fill="none" stroke="#fff" stroke-miterlimit="10"/>
<path d="M458,101.46a263,263,0,0,0-22.09-15.85l.81-1.31a260.65,260.65,0,0,1,22.23,16Z" fill="#2f2e41" data-secondary="true"/>
<path d="M470.35,92.91h-1.54c0-17.36-4.78-42.13-4.83-42.38l1.51-.3C465.54,50.48,470.35,75.4,470.35,92.91Z" fill="#2f2e41" data-secondary="true"/>
<path d="M573.83,615a22.5,22.5,0,0,1,2.9-9.27,17.54,17.54,0,0,1,11.76-8.39c.8-.2,1.63-.25,2.45-.37s1.65-.14,2.47-.1a38.48,38.48,0,0,1,9.73,1.38c1.61.42,3.1.94,4.67,1.3s3.15.71,4.73,1a38.55,38.55,0,0,0,9.59.36,13.84,13.84,0,0,0,8.6-3.62,10.69,10.69,0,0,0,2.48-4,18.26,18.26,0,0,0,.81-4.77,16.59,16.59,0,0,1-.56,4.85,11.13,11.13,0,0,1-2.37,4.29c-2.29,2.47-5.63,3.62-8.87,4a36.2,36.2,0,0,1-9.81-.23c-1.62-.24-3.23-.55-4.82-.93s-3.18-.88-4.71-1.26a38.11,38.11,0,0,0-9.47-1.45c-.8,0-1.6.06-2.39.08a23.12,23.12,0,0,0-2.36.34,18.61,18.61,0,0,0-4.51,1.47,16.68,16.68,0,0,0-7,6.32A23.13,23.13,0,0,0,573.83,615Z" fill="#fff"/>
<path d="M541.13,533.91s42.52,4.89,68.62-32.3a3.67,3.67,0,0,0,.38-3.69c-.54-1.08-1.74-1.86-4.35-.67a8.73,8.73,0,0,0-3.16,2.53c-4.73,5.88-25.86,29.11-60.72,25.19Z" fill="#fff"/>
<path d="M604.47,491A48.26,48.26,0,0,0,623,456.87s21.33,22.19,24.19,76.37c0,0,3-68-24.19-92.5,0,0-3.8,23.86-23.32,45.45C599.63,486.19,594.43,493.22,604.47,491Z" fill="#fff"/>
<path d="M622.86,479.41a18.65,18.65,0,0,1,1.2-4.61,5.3,5.3,0,0,1,1.4-2.05,1.82,1.82,0,0,1,1.33-.43,2.48,2.48,0,0,1,1.26.54,6.92,6.92,0,0,1,1.6,1.92c.42.7.78,1.42,1.13,2.12.7,1.42,1.37,2.85,2,4.29,1.28,2.89,2.5,5.82,3.52,8.82a53,53,0,0,1,2.43,9.17c-.46-1.51-.91-3-1.47-4.49s-1.09-3-1.68-4.41q-1.77-4.38-3.71-8.68-1-2.16-2-4.29c-.33-.72-.66-1.42-1-2.08a7,7,0,0,0-1.32-1.78,1.28,1.28,0,0,0-1.73-.19A4.86,4.86,0,0,0,624.5,475,21.87,21.87,0,0,0,622.86,479.41Z" fill="#fff"/>
<path d="M229.8,491.47c2.36,1.2,4.76,2.34,7.19,3.4s4.87,2.1,7.34,3a111.75,111.75,0,0,0,15.12,4.74,76,76,0,0,0,7.78,1.43,55.94,55.94,0,0,0,7.87.41,32.14,32.14,0,0,0,7.81-1,26.52,26.52,0,0,0,7.29-3,28.12,28.12,0,0,1-15.06,4.83,58.8,58.8,0,0,1-15.92-1.64,102,102,0,0,1-15.17-5A107.18,107.18,0,0,1,229.8,491.47Z" fill="#fff"/>
<path d="M294.14,489.29c6.5,6.41,11.19,14.45,14.86,22.78,1,2.07,1.75,4.22,2.55,6.35.4,1.07.73,2.17,1.09,3.25s.74,2.16,1,3.27c.61,2.2,1.26,4.39,1.73,6.62l.77,3.34.59,3.38c1.32,9,2.79,18,4.58,26.88.9,4.45,1.89,8.89,3.08,13.27.58,2.19,1.23,4.37,2,6.5a28.84,28.84,0,0,0,1.28,3.15,19.16,19.16,0,0,0,1.63,3,20.53,20.53,0,0,1-1.77-2.91,30.91,30.91,0,0,1-1.39-3.12c-.85-2.12-1.56-4.29-2.22-6.47-1.3-4.37-2.37-8.8-3.36-13.24-1.95-8.9-3.42-17.9-4.82-26.88a116.64,116.64,0,0,0-7.46-26.07,90.7,90.7,0,0,0-6.09-12.15A62.09,62.09,0,0,0,294.14,489.29Z" fill="#fff"/>
<path d="M240.37,588.45a18.19,18.19,0,0,0-2.59,7.38,9.14,9.14,0,0,0,.39,3.79,7.46,7.46,0,0,0,2.09,3.12c1.9,1.7,4.43,2.57,6.92,3.36a37.44,37.44,0,0,0,7.67,1.5,25,25,0,0,0,14.87-3.77,27.11,27.11,0,0,0,3.2-2.25,18.45,18.45,0,0,1,3.3-2.28,10.43,10.43,0,0,1,7.78-.95,10.34,10.34,0,0,0-3.92,0,11.49,11.49,0,0,0-3.62,1.4,18.63,18.63,0,0,0-3.13,2.34,27,27,0,0,1-3.21,2.42,25.2,25.2,0,0,1-15.34,4.11,37.42,37.42,0,0,1-7.87-1.62,36.25,36.25,0,0,1-3.76-1.42,12.24,12.24,0,0,1-3.41-2.25,8.24,8.24,0,0,1-2.17-3.48,9.42,9.42,0,0,1-.27-4.05A17.43,17.43,0,0,1,240.37,588.45Z" fill="#fff"/>
<path d="M281.24,591.06a9.82,9.82,0,0,1,3.47,1.07,11.35,11.35,0,0,1,1.54,1,5.11,5.11,0,0,1,1.28,1.34,27.71,27.71,0,0,1-3.28-1.42A14.5,14.5,0,0,1,281.24,591.06Z" fill="#fff"/>
<path d="M329.32,578.78a48.21,48.21,0,0,1,6-1,41.06,41.06,0,0,1,6.08-.2,17.39,17.39,0,0,1,6,1.25,7.92,7.92,0,0,1,2.64,1.79,5.87,5.87,0,0,1,1.49,2.89l-.06-.16a7,7,0,0,1-.11,6.43,12.29,12.29,0,0,1-4.49,4.51,30.5,30.5,0,0,1-5.73,2.54,55,55,0,0,1-6,1.51c1-.32,2-.63,3-.92s1.93-.72,2.9-1.06a30.17,30.17,0,0,0,5.49-2.72,12.41,12.41,0,0,0,4.08-4.27,6.14,6.14,0,0,0,.08-5.52l-.05-.09v-.06a5,5,0,0,0-1.22-2.44,7,7,0,0,0-2.31-1.6,18.58,18.58,0,0,0-5.72-1.32,41.39,41.39,0,0,0-6-.08C333.33,578.31,331.32,578.51,329.32,578.78Z" fill="#fff"/>
<path d="M353,168.53,335.7,151.94l25.64,4.53,11.41-18.54a.47.47,0,0,1,.86.17l3.56,20.63,22.62,9.8-22.62,6s.76,24.88-6,30.16c0,0-5.28-8.3-8.3-24.89l-19.6,12.82Z" fill="#fff"/>
<path d="M436.05,191.89,418.71,175.3l25.64,4.52,11.41-18.54a.47.47,0,0,1,.87.17l3.55,20.63,22.63,9.81-22.63,6s.76,24.88-6,30.16c0,0-5.28-8.29-8.29-24.88L426.25,216Z" fill="#fff"/>
<path d="M518.64,216,501.3,199.45,526.94,204l11.41-18.54a.47.47,0,0,1,.87.16l3.55,20.64L565.4,216l-22.63,6s.76,24.89-6,30.17c0,0-5.28-8.3-8.29-24.89l-19.61,12.82Z" fill="#fff"/>
<path d="M595.85,242.45l-17.34-16.59,25.64,4.53,11.41-18.54a.47.47,0,0,1,.87.17L620,232.65l22.63,9.8-22.63,6s.76,24.88-6,30.16c0,0-5.28-8.3-8.29-24.89l-19.61,12.82Z" fill="#fff"/>
<path d="M667.49,262.86l-17.34-16.58,25.64,4.52,11.4-18.54a.47.47,0,0,1,.87.17l3.56,20.63,22.62,9.8-22.62,6s.76,24.88-6,30.16c0,0-5.28-8.29-8.3-24.88L657.69,287Z" fill="#fff"/>
<path d="M369.63,245.45s-17,33.93-15.86,49.95a6.46,6.46,0,0,0,10.35,4.74c12.7-9.63,50.69-35.9,74.89-25.66,0,0,106.22,37.21,183.94,55.75,0,0,54.35,14.76,73.2,8.72,0,0,10.55-.05,23.37-46,0,0,21.12-63.32-12.82-73.12l-213.4-65.6s-138.75-54.3-157.6-18.1c0,0-38.46,75-12.07,95.92C323.63,232,331.17,238.66,369.63,245.45Z" fill="none" stroke="#2f2e41" stroke-miterlimit="10"/>
<g opacity="0.2">
<path d="M342.68,453.32c-.45.67,3.47,4.09,8.76,7.63s9.94,5.88,10.39,5.21-3.47-4.09-8.76-7.64S343.13,452.65,342.68,453.32Z"/>
</g>
</svg>